<?xml version="1.0" standalone="no"?>
<!DOCTYPE svg PUBLIC "-//W3C//DTD SVG 20010904//EN"
 "http://www.w3.org/TR/2001/REC-SVG-20010904/DTD/svg10.dtd">
<svg version="1.0" xmlns="http://www.w3.org/2000/svg"
 width="2081.000000pt" height="2081.000000pt" viewBox="0 0 2081.000000 2081.000000"
 preserveAspectRatio="xMidYMid meet">
<metadata>
Created by potrace 1.11, written by Peter Selinger 2001-2013
</metadata>
<g transform="translate(0.000000,2081.000000) scale(0.100000,-0.100000)"
fill="#000000" stroke="none">
<path d="M9968 20805 c-2 -2 -59 -6 -128 -9 -69 -4 -145 -8 -170 -11 -25 -2
-90 -7 -144 -10 -55 -4 -107 -8 -115 -10 -9 -1 -47 -6 -86 -9 -141 -14 -160
-16 -180 -20 -11 -2 -49 -7 -85 -11 -36 -3 -72 -8 -80 -10 -8 -2 -39 -7 -69
-10 -30 -4 -63 -9 -75 -11 -12 -2 -39 -7 -61 -9 -38 -5 -290 -49 -345 -60 -14
-3 -38 -8 -55 -10 -16 -3 -37 -8 -46 -11 -10 -2 -30 -7 -45 -9 -16 -3 -90 -18
-164 -35 -74 -17 -146 -33 -159 -36 -14 -3 -28 -7 -31 -9 -4 -2 -22 -7 -41
-10 -46 -9 -64 -13 -64 -15 0 -1 -7 -3 -15 -5 -8 -1 -35 -8 -60 -15 -25 -7
-52 -13 -60 -15 -111 -23 -651 -196 -890 -285 -260 -97 -657 -261 -735 -303
-11 -6 -22 -12 -25 -12 -30 -5 -527 -257 -673 -341 -32 -19 -60 -34 -62 -34
-3 0 -35 -18 -72 -40 -38 -22 -75 -45 -83 -49 -219 -130 -329 -199 -528 -332
-122 -83 -397 -275 -425 -299 -7 -6 -55 -43 -107 -82 -505 -381 -1079 -917
-1516 -1418 -21 -25 -41 -47 -45 -50 -12 -11 -211 -252 -285 -345 -567 -717
-1055 -1536 -1407 -2360 -70 -166 -79 -188 -82 -195 -1 -3 -7 -18 -14 -35
-101 -241 -246 -668 -361 -1065 -21 -71 -88 -331 -94 -364 -2 -12 -13 -60 -25
-107 -22 -90 -59 -265 -66 -309 -2 -14 -9 -50 -15 -80 -6 -30 -13 -64 -14 -75
-2 -11 -11 -65 -20 -120 -10 -55 -19 -111 -21 -125 -18 -113 -25 -161 -30
-200 -3 -25 -8 -56 -10 -70 -2 -14 -6 -50 -10 -80 -3 -30 -8 -71 -10 -90 -2
-19 -7 -62 -10 -95 -4 -33 -8 -76 -10 -95 -6 -48 -12 -138 -32 -430 -10 -152
-10 -970 1 -1135 4 -71 9 -154 11 -183 2 -29 6 -85 10 -125 6 -67 8 -92 20
-199 2 -24 7 -70 10 -103 4 -33 8 -71 10 -85 2 -14 7 -52 10 -85 4 -33 8 -67
10 -75 3 -8 7 -40 10 -70 3 -30 8 -62 10 -70 2 -8 7 -35 10 -60 3 -25 10 -67
15 -95 5 -27 11 -61 14 -75 81 -480 211 -993 381 -1505 60 -180 82 -242 153
-430 148 -392 383 -895 605 -1298 64 -115 77 -138 144 -252 61 -103 94 -158
181 -295 98 -153 324 -485 379 -555 4 -6 48 -64 97 -130 50 -66 137 -178 195
-250 120 -148 132 -163 146 -179 6 -6 33 -38 60 -71 28 -33 59 -69 70 -81 11
-11 47 -52 80 -89 118 -135 183 -203 400 -420 397 -396 642 -610 1145 -995
166 -127 683 -476 805 -544 11 -6 74 -43 140 -82 66 -39 147 -86 180 -104 33
-18 78 -43 100 -55 22 -12 65 -36 95 -52 73 -41 378 -194 460 -231 36 -16 99
-45 140 -65 97 -45 326 -143 415 -177 292 -113 395 -150 575 -211 188 -62 401
-128 540 -165 331 -89 692 -170 982 -219 128 -22 283 -46 323 -50 28 -3 61 -8
75 -10 14 -2 48 -7 75 -10 28 -3 66 -8 85 -10 33 -5 62 -8 175 -20 88 -9 138
-13 230 -20 50 -4 110 -8 135 -10 284 -24 1059 -24 1360 0 19 1 78 5 130 9 52
3 111 8 130 11 19 2 64 7 100 10 36 3 81 8 100 10 19 2 60 7 90 10 30 3 66 8
80 10 14 2 48 6 75 10 28 3 91 12 140 20 50 7 113 16 140 20 28 3 68 10 90 15
22 5 58 11 80 15 22 3 85 15 140 26 55 11 114 22 130 25 17 3 71 14 120 25 50
12 99 22 110 25 94 18 558 140 625 163 14 5 72 24 130 41 114 34 363 116 395
130 11 5 52 20 90 33 167 59 521 203 680 276 44 21 105 48 135 62 96 42 510
252 665 339 288 160 621 369 900 563 112 79 451 330 510 379 11 9 81 66 155
127 168 139 147 121 265 225 315 279 660 625 957 961 243 275 599 742 823
1080 134 202 355 557 355 570 0 3 18 34 40 70 22 36 40 67 40 69 0 1 30 56 66
122 59 106 239 468 307 614 217 472 474 1189 583 1630 2 8 17 67 34 130 16 63
32 126 35 140 5 27 12 59 19 87 3 10 12 52 21 93 9 41 19 84 21 95 3 11 7 31
9 45 2 14 7 36 10 50 7 31 23 114 30 160 3 19 8 42 10 50 2 8 7 33 10 55 3 23
7 52 10 65 3 13 7 42 10 65 3 22 10 63 15 90 5 28 12 75 16 105 3 30 8 62 9
70 2 8 6 44 10 80 4 36 8 72 10 80 2 8 6 49 10 90 3 41 8 86 10 100 2 14 6 57
9 95 3 39 9 99 12 135 32 369 37 1190 9 1480 -2 19 -6 82 -10 140 -3 58 -8
116 -10 130 -2 14 -7 57 -10 97 -4 40 -8 85 -10 100 -2 15 -7 57 -10 93 -4 36
-9 74 -11 85 -2 11 -6 43 -9 70 -4 28 -8 61 -10 75 -7 50 -17 115 -21 135 -2
10 -6 37 -9 60 -7 45 -23 141 -31 182 -3 16 -7 42 -10 58 -113 663 -410 1640
-680 2233 -13 29 -24 54 -24 56 0 2 -20 46 -44 98 -24 51 -53 116 -66 143 -28
63 -193 393 -230 460 -15 28 -42 77 -60 110 -158 289 -403 682 -607 975 -117
169 -443 595 -508 666 -5 6 -30 35 -55 64 -62 74 -177 207 -225 259 -22 25
-67 74 -100 110 -150 165 -572 577 -751 732 -130 113 -173 150 -200 171 -16
12 -31 25 -34 29 -3 3 -57 47 -120 98 -63 51 -123 99 -134 108 -10 8 -82 62
-160 120 -77 57 -148 110 -157 117 -8 7 -80 58 -160 112 -155 108 -243 165
-439 289 -99 63 -271 164 -435 255 -331 185 -808 413 -1140 545 -38 15 -83 33
-100 40 -16 8 -88 34 -160 60 -71 26 -143 53 -160 60 -34 15 -313 106 -485
159 -110 33 -474 132 -522 141 -13 3 -59 14 -103 24 -79 20 -246 56 -295 65
-14 2 -36 7 -50 10 -27 6 -54 11 -140 26 -30 6 -64 12 -75 14 -11 2 -40 7 -65
11 -25 4 -54 9 -65 11 -10 2 -37 6 -60 9 -22 3 -47 8 -55 10 -8 2 -35 6 -60 9
-25 3 -65 8 -90 11 -25 3 -58 8 -75 11 -34 6 -75 11 -167 19 -35 3 -74 7 -88
10 -14 2 -56 7 -95 10 -38 3 -92 8 -120 10 -67 6 -206 16 -280 22 -75 5 -1022
13 -1027 8z"/>
</g>
</svg>
